<mxfile host="Electron" modified="2023-05-26T18:19:23.893Z" agent="Mozilla/5.0 (Macintosh; Intel Mac OS X 10_15_7) AppleWebKit/537.36 (KHTML, like Gecko) draw.io/21.2.8 Chrome/112.0.5615.165 Electron/24.2.0 Safari/537.36" etag="b6ML_JOvXI_8GN4TxaFx" version="21.2.8" type="device">
  <diagram name="Page-1" id="3_ubY-j1TbXB0_skYnM7">
    <mxGraphModel dx="1140" dy="826" grid="1" gridSize="10" guides="1" tooltips="1" connect="1" arrows="1" fold="1" page="1" pageScale="1" pageWidth="827" pageHeight="1169" math="0" shadow="0">
      <root>
        <mxCell id="0" />
        <mxCell id="1" parent="0" />
        <mxCell id="82Aoj_eVQICxBKDQXrJv-5" style="edgeStyle=orthogonalEdgeStyle;rounded=0;orthogonalLoop=1;jettySize=auto;html=1;exitX=1;exitY=0.5;exitDx=0;exitDy=0;entryX=0.002;entryY=0.559;entryDx=0;entryDy=0;entryPerimeter=0;fontFamily=CMU serif;" parent="1" source="82Aoj_eVQICxBKDQXrJv-1" target="82Aoj_eVQICxBKDQXrJv-2" edge="1">
          <mxGeometry relative="1" as="geometry" />
        </mxCell>
        <mxCell id="82Aoj_eVQICxBKDQXrJv-6" value="UART&lt;br&gt;" style="edgeLabel;html=1;align=center;verticalAlign=middle;resizable=0;points=[];fontFamily=CMU serif;" parent="82Aoj_eVQICxBKDQXrJv-5" vertex="1" connectable="0">
          <mxGeometry x="0.1286" y="14" relative="1" as="geometry">
            <mxPoint x="-9" as="offset" />
          </mxGeometry>
        </mxCell>
        <mxCell id="82Aoj_eVQICxBKDQXrJv-1" value="UWB &lt;br&gt;DW1000" style="rounded=1;whiteSpace=wrap;html=1;fontFamily=CMU serif;strokeWidth=2;fillColor=#1ba1e2;fontColor=#ffffff;strokeColor=#006EAF;" parent="1" vertex="1">
          <mxGeometry x="150" y="310" width="100" height="60" as="geometry" />
        </mxCell>
        <mxCell id="82Aoj_eVQICxBKDQXrJv-2" value="" style="rounded=0;whiteSpace=wrap;html=1;strokeWidth=4;fontFamily=CMU serif;" parent="1" vertex="1">
          <mxGeometry x="320" y="200" width="250" height="250" as="geometry" />
        </mxCell>
        <mxCell id="82Aoj_eVQICxBKDQXrJv-17" style="edgeStyle=orthogonalEdgeStyle;rounded=0;orthogonalLoop=1;jettySize=auto;html=1;entryX=0.66;entryY=-0.012;entryDx=0;entryDy=0;entryPerimeter=0;fontFamily=CMU serif;" parent="1" source="82Aoj_eVQICxBKDQXrJv-4" target="82Aoj_eVQICxBKDQXrJv-2" edge="1">
          <mxGeometry relative="1" as="geometry" />
        </mxCell>
        <mxCell id="82Aoj_eVQICxBKDQXrJv-18" value="&lt;font&gt;USB&lt;/font&gt;" style="edgeLabel;html=1;align=center;verticalAlign=middle;resizable=0;points=[];fontFamily=CMU serif;" parent="82Aoj_eVQICxBKDQXrJv-17" vertex="1" connectable="0">
          <mxGeometry x="0.1381" y="3" relative="1" as="geometry">
            <mxPoint x="-20" y="-4" as="offset" />
          </mxGeometry>
        </mxCell>
        <mxCell id="82Aoj_eVQICxBKDQXrJv-4" value="UVDAR cameras" style="rounded=1;whiteSpace=wrap;html=1;fontFamily=CMU serif;strokeWidth=2;" parent="1" vertex="1">
          <mxGeometry x="425" y="100" width="121" height="40" as="geometry" />
        </mxCell>
        <mxCell id="82Aoj_eVQICxBKDQXrJv-9" value="Intel NUC" style="text;html=1;strokeColor=none;fillColor=none;align=center;verticalAlign=middle;whiteSpace=wrap;rounded=0;fontFamily=CMU serif;" parent="1" vertex="1">
          <mxGeometry x="330" y="210" width="60" height="30" as="geometry" />
        </mxCell>
        <mxCell id="82Aoj_eVQICxBKDQXrJv-10" value="" style="rounded=1;whiteSpace=wrap;html=1;fontFamily=CMU serif;" parent="1" vertex="1">
          <mxGeometry x="340" y="240" width="210" height="190" as="geometry" />
        </mxCell>
        <mxCell id="82Aoj_eVQICxBKDQXrJv-11" value="ROS" style="text;html=1;strokeColor=none;fillColor=none;align=center;verticalAlign=middle;whiteSpace=wrap;rounded=0;fontFamily=CMU serif;" parent="1" vertex="1">
          <mxGeometry x="350" y="250" width="60" height="30" as="geometry" />
        </mxCell>
        <mxCell id="82Aoj_eVQICxBKDQXrJv-24" style="edgeStyle=orthogonalEdgeStyle;rounded=0;orthogonalLoop=1;jettySize=auto;html=1;exitX=0.5;exitY=1;exitDx=0;exitDy=0;entryX=0;entryY=0.5;entryDx=0;entryDy=0;fontFamily=CMU serif;" parent="1" source="82Aoj_eVQICxBKDQXrJv-12" target="82Aoj_eVQICxBKDQXrJv-21" edge="1">
          <mxGeometry relative="1" as="geometry" />
        </mxCell>
        <mxCell id="82Aoj_eVQICxBKDQXrJv-25" style="edgeStyle=orthogonalEdgeStyle;rounded=0;orthogonalLoop=1;jettySize=auto;html=1;exitX=0;exitY=0.5;exitDx=0;exitDy=0;startArrow=classic;startFill=1;endArrow=none;endFill=0;fontFamily=CMU serif;" parent="1" source="82Aoj_eVQICxBKDQXrJv-12" edge="1">
          <mxGeometry relative="1" as="geometry">
            <mxPoint x="320" y="340.1538461538462" as="targetPoint" />
          </mxGeometry>
        </mxCell>
        <mxCell id="82Aoj_eVQICxBKDQXrJv-12" value="UWB&lt;br&gt;processing" style="ellipse;whiteSpace=wrap;html=1;fillColor=#1ba1e2;fontColor=#ffffff;strokeColor=#006EAF;fontFamily=CMU serif;" parent="1" vertex="1">
          <mxGeometry x="359" y="310" width="81" height="60" as="geometry" />
        </mxCell>
        <mxCell id="82Aoj_eVQICxBKDQXrJv-22" style="edgeStyle=orthogonalEdgeStyle;rounded=0;orthogonalLoop=1;jettySize=auto;html=1;exitX=0.5;exitY=1;exitDx=0;exitDy=0;entryX=0.5;entryY=0;entryDx=0;entryDy=0;fontFamily=CMU serif;" parent="1" source="82Aoj_eVQICxBKDQXrJv-19" target="82Aoj_eVQICxBKDQXrJv-21" edge="1">
          <mxGeometry relative="1" as="geometry" />
        </mxCell>
        <mxCell id="82Aoj_eVQICxBKDQXrJv-19" value="UVDAR&lt;br&gt;processing" style="ellipse;whiteSpace=wrap;html=1;fontFamily=CMU serif;" parent="1" vertex="1">
          <mxGeometry x="430" y="260" width="110" height="60" as="geometry" />
        </mxCell>
        <mxCell id="82Aoj_eVQICxBKDQXrJv-20" style="edgeStyle=orthogonalEdgeStyle;rounded=0;orthogonalLoop=1;jettySize=auto;html=1;exitX=0.653;exitY=-0.001;exitDx=0;exitDy=0;entryX=0.5;entryY=0;entryDx=0;entryDy=0;exitPerimeter=0;fontFamily=CMU serif;" parent="1" source="82Aoj_eVQICxBKDQXrJv-2" target="82Aoj_eVQICxBKDQXrJv-19" edge="1">
          <mxGeometry relative="1" as="geometry">
            <Array as="points">
              <mxPoint x="485" y="200" />
            </Array>
          </mxGeometry>
        </mxCell>
        <mxCell id="82Aoj_eVQICxBKDQXrJv-21" value="&lt;font&gt;Object tracker&lt;/font&gt;" style="ellipse;whiteSpace=wrap;html=1;fillColor=#1ba1e2;fontColor=#ffffff;strokeColor=#006EAF;fontFamily=CMU serif;" parent="1" vertex="1">
          <mxGeometry x="452.5" y="365" width="65" height="60" as="geometry" />
        </mxCell>
      </root>
    </mxGraphModel>
  </diagram>
</mxfile>
